<svg xmlns="http://www.w3.org/2000/svg" viewBox="0 0 248 248" width="248" height="248" role="img" aria-label="GOCAS monograma">
  <title>GOCAS — monograma ambar</title>
  <rect width="248" height="248" fill="#d97a3c"></rect>
  <path d="M64.69 208L38.22 208L38.22 42.25L64.69 42.25L64.69 50.50L46.47 50.50L46.47 199.75L64.69 199.75L64.69 208Z" fill="#3d4a2a"></path>
  <path d="M122.57 201.35L122.57 201.35Q116.59 201.35 111.19 199.43Q105.80 197.51 101.54 194.10Q97.28 190.69 94.62 186.14L94.62 186.14L111 178.21Q112.69 181.33 115.84 182.95Q119.00 184.58 122.70 184.58L122.70 184.58Q126.66 184.58 130.18 183.25Q133.69 181.91 135.80 179.28Q137.91 176.65 137.78 172.75L137.78 172.75L137.78 165.73Q130.95 170.15 121.01 170.15L121.01 170.15Q111.33 170.15 104.05 165.27Q96.77 160.40 92.70 152.01Q88.64 143.63 88.64 133.10L88.64 133.10Q88.64 122.37 92.77 114.02Q96.89 105.67 104.37 100.86Q111.84 96.05 121.92 96.05L121.92 96.05Q131.93 96.05 138.75 100.92L138.75 100.92Q139.41 101.38 139.99 101.83L139.99 101.83L139.99 98.00L155.46 98.00L155.46 173.01Q155.46 175.61 155.23 177.92Q155.00 180.22 154.42 182.50L154.42 182.50Q152.73 188.94 148.15 193.09Q143.56 197.25 136.94 199.30Q130.31 201.35 122.57 201.35ZM123.87 154.42L123.87 154.42Q129.78 154.42 133.33 151.75Q136.87 149.09 138.43 144.28Q139.99 139.47 139.99 133.10Q139.99 126.73 138.43 121.92Q136.87 117.11 133.46 114.44Q130.05 111.78 124.52 111.78L124.52 111.78Q118.60 111.78 114.80 114.67Q111 117.56 109.18 122.41Q107.36 127.25 107.36 133.10L107.36 133.10Q107.36 139.01 109.11 143.86Q110.87 148.70 114.51 151.56Q118.15 154.42 123.87 154.42Z" fill="#3d4a2a"></path>
  <path d="M209.78 42.25L209.78 208L183.31 208L183.31 199.75L201.53 199.75L201.53 50.50L183.31 50.50L183.31 42.25L209.78 42.25Z" fill="#3d4a2a"></path>
</svg>