<svg xmlns="http://www.w3.org/2000/svg" viewBox="0 0 859.64 288" width="859.64" height="288" role="img" aria-label="GOCAS Automations">
  <title>GOCAS Automations — reversado</title>
  <path d="M107.30 238L72 238L72 17L107.30 17L107.30 28L83 28L83 227L107.30 227L107.30 238Z" fill="#d97a3c"></path>
  <path d="M787.64 17L787.64 238L752.34 238L752.34 227L776.64 227L776.64 28L752.34 28L752.34 17L787.64 17Z" fill="#d97a3c"></path>
  <path d="M212.30 174.40L212.30 174.40Q201.42 174.40 191.58 170.52Q181.74 166.64 174.18 159.04Q166.62 151.44 162.26 140.24Q157.90 129.04 157.90 114.40L157.90 114.40Q157.90 95.28 165.22 81.88Q172.54 68.48 184.90 61.44Q197.26 54.40 212.30 54.40L212.30 54.40Q234.54 54.40 247.26 64.72Q259.98 75.04 264.30 93.92L264.30 93.92L242.06 97.12Q238.94 87.04 231.86 81Q224.78 74.96 213.74 74.88L213.74 74.88Q202.78 74.72 195.50 79.60Q188.22 84.48 184.58 93.44Q180.94 102.40 180.94 114.40L180.94 114.40Q180.94 126.40 184.58 135.20Q188.22 144 195.50 148.88Q202.78 153.76 213.74 153.92L213.74 153.92Q221.18 154.08 227.22 151.36Q233.26 148.64 237.42 142.80Q241.58 136.96 243.34 127.84L243.34 127.84L225.10 127.84L225.10 111.04L266.54 111.04Q266.70 112.08 266.78 114.72Q266.86 117.36 266.86 117.76L266.86 117.76Q266.86 134.32 260.14 147.12Q253.42 159.92 241.18 167.16Q228.94 174.40 212.30 174.40ZM326.70 174.40L326.70 174.40Q309.42 174.40 296.90 166.88Q284.38 159.36 277.62 145.84Q270.86 132.32 270.86 114.40L270.86 114.40Q270.86 96.48 277.62 82.96Q284.38 69.44 296.90 61.92Q309.42 54.40 326.70 54.40L326.70 54.40Q343.98 54.40 356.50 61.92Q369.02 69.44 375.78 82.96Q382.54 96.48 382.54 114.40L382.54 114.40Q382.54 132.32 375.78 145.84Q369.02 159.36 356.50 166.88Q343.98 174.40 326.70 174.40ZM326.70 153.92L326.70 153.92Q337.66 154.08 344.94 149.20Q352.22 144.32 355.86 135.36Q359.50 126.40 359.50 114.40L359.50 114.40Q359.50 102.40 355.86 93.60Q352.22 84.80 344.94 79.92Q337.66 75.04 326.70 74.88L326.70 74.88Q315.74 74.72 308.46 79.60Q301.18 84.48 297.54 93.44Q293.90 102.40 293.90 114.40L293.90 114.40Q293.90 126.40 297.54 135.20Q301.18 144 308.46 148.88Q315.74 153.76 326.70 153.92ZM442.38 174.40L442.38 174.40Q425.10 174.40 412.58 166.88Q400.06 159.36 393.30 145.84Q386.54 132.32 386.54 114.40L386.54 114.40Q386.54 96.48 393.30 82.96Q400.06 69.44 412.58 61.92Q425.10 54.40 442.38 54.40L442.38 54.40Q462.22 54.40 475.70 64.24Q489.18 74.08 494.70 90.88L494.70 90.88L472.78 96.96Q469.58 86.48 461.98 80.68Q454.38 74.88 442.38 74.88L442.38 74.88Q431.42 74.88 424.10 79.76Q416.78 84.64 413.10 93.52Q409.42 102.40 409.42 114.40L409.42 114.40Q409.42 126.40 413.10 135.28Q416.78 144.16 424.10 149.04Q431.42 153.92 442.38 153.92L442.38 153.92Q454.38 153.92 461.98 148.08Q469.58 142.24 472.78 131.84L472.78 131.84L494.70 137.92Q489.18 154.72 475.70 164.56Q462.22 174.40 442.38 174.40ZM521.10 172L498.70 172L533.90 56.80L566.38 56.80L601.58 172L579.18 172L571.74 148L528.38 148L521.10 172ZM534.54 127.68L565.50 127.68L549.90 77.20L534.54 127.68ZM653.90 174.40L653.90 174.40Q641.10 174.40 630.82 169.88Q620.54 165.36 613.94 156.92Q607.34 148.48 605.58 136.80L605.58 136.80L628.30 133.44Q630.70 143.36 638.22 148.72Q645.74 154.08 655.34 154.08L655.34 154.08Q660.70 154.08 665.74 152.40Q670.78 150.72 674.02 147.44Q677.26 144.16 677.26 139.36L677.26 139.36Q677.26 137.60 676.74 135.96Q676.22 134.32 675.02 132.88Q673.82 131.44 671.62 130.16Q669.42 128.88 666.06 127.84L666.06 127.84L636.14 119.04Q632.78 118.08 628.34 116.32Q623.90 114.56 619.74 111.28Q615.58 108 612.82 102.60Q610.06 97.20 610.06 88.96L610.06 88.96Q610.06 77.36 615.90 69.68Q621.74 62 631.50 58.24Q641.26 54.48 653.10 54.56L653.10 54.56Q665.02 54.72 674.38 58.64Q683.74 62.56 690.06 70.04Q696.38 77.52 699.18 88.32L699.18 88.32L675.66 92.32Q674.38 86.72 670.94 82.88Q667.50 79.04 662.74 77.04Q657.98 75.04 652.78 74.88L652.78 74.88Q647.66 74.72 643.14 76.28Q638.62 77.84 635.78 80.80Q632.94 83.76 632.94 87.84L632.94 87.84Q632.94 91.60 635.26 93.96Q637.58 96.32 641.10 97.76Q644.62 99.20 648.30 100.16L648.30 100.16L668.30 105.60Q672.78 106.80 678.22 108.76Q683.66 110.72 688.66 114.20Q693.66 117.68 696.90 123.36Q700.14 129.04 700.14 137.76L700.14 137.76Q700.14 147.04 696.26 153.96Q692.38 160.88 685.82 165.40Q679.26 169.92 670.98 172.16Q662.70 174.40 653.90 174.40Z" fill="#f7f1e3"></path>
  <path d="M157.51 228L154.34 228L159.70 206.98L163.78 206.98L169.14 228L166.00 228L164.74 222.67L158.77 222.67L157.51 228ZM160.79 214.00L159.35 220.11L164.13 220.11L162.69 214.03Q162.32 212.42 162.07 211.22Q161.83 210.03 161.74 209.60L161.74 209.60Q161.65 210.03 161.42 211.22Q161.19 212.42 160.79 214.00L160.79 214.00ZM185.93 228.29L185.93 228.29Q182.91 228.29 181.27 226.63Q179.62 224.98 179.62 222.12L179.62 222.12L179.62 206.98L182.74 206.98L182.74 222.12Q182.74 223.71 183.53 224.63Q184.32 225.55 185.93 225.55L185.93 225.55Q187.52 225.55 188.32 224.63Q189.13 223.71 189.13 222.12L189.13 222.12L189.13 206.98L192.24 206.98L192.24 222.12Q192.24 224.98 190.60 226.63Q188.96 228.29 185.93 228.29ZM211.68 228L208.57 228L208.57 209.83L202.95 209.83L202.95 206.95L217.30 206.95L217.30 209.83L211.68 209.83L211.68 228ZM234.32 228.29L234.32 228.29Q232.36 228.29 230.93 227.55Q229.51 226.82 228.74 225.42Q227.98 224.03 227.98 222.15L227.98 222.15L227.98 212.82Q227.98 210.92 228.74 209.54Q229.51 208.16 230.93 207.42Q232.36 206.69 234.32 206.69L234.32 206.69Q236.27 206.69 237.70 207.42Q239.13 208.16 239.89 209.54Q240.65 210.92 240.65 212.79L240.65 212.79L240.65 222.15Q240.65 224.03 239.89 225.42Q239.13 226.82 237.70 227.55Q236.27 228.29 234.32 228.29ZM234.32 225.52L234.32 225.52Q235.90 225.52 236.72 224.64Q237.54 223.77 237.54 222.15L237.54 222.15L237.54 212.82Q237.54 211.18 236.72 210.32Q235.90 209.45 234.32 209.45L234.32 209.45Q232.76 209.45 231.93 210.32Q231.09 211.18 231.09 212.82L231.09 212.82L231.09 222.15Q231.09 223.77 231.93 224.64Q232.76 225.52 234.32 225.52ZM254.71 228L251.77 228L251.77 206.98L255.60 206.98L257.70 213.72Q258.02 214.67 258.25 215.54Q258.48 216.42 258.57 216.85L258.57 216.85Q258.68 216.42 258.90 215.54Q259.11 214.67 259.40 213.72L259.40 213.72L261.42 206.98L265.25 206.98L265.25 228L262.31 228L262.31 220.92Q262.31 219.56 262.38 217.91Q262.45 216.25 262.60 214.56Q262.74 212.88 262.89 211.34Q263.03 209.80 263.14 208.65L263.14 208.65L260.03 218.87L257.04 218.87L253.87 208.65Q254.02 209.77 254.16 211.25Q254.30 212.74 254.42 214.41Q254.53 216.08 254.62 217.76Q254.71 219.45 254.71 220.92L254.71 220.92L254.71 228ZM278.47 228L275.30 228L280.66 206.98L284.74 206.98L290.10 228L286.96 228L285.70 222.67L279.73 222.67L278.47 228ZM281.75 214.00L280.31 220.11L285.09 220.11L283.65 214.03Q283.28 212.42 283.03 211.22Q282.79 210.03 282.70 209.60L282.70 209.60Q282.61 210.03 282.38 211.22Q282.15 212.42 281.75 214.00L281.75 214.00ZM308.45 228L305.34 228L305.34 209.83L299.72 209.83L299.72 206.95L314.06 206.95L314.06 209.83L308.45 209.83L308.45 228ZM336.90 228L325.27 228L325.27 225.24L329.50 225.24L329.50 209.74L325.27 209.74L325.27 206.98L336.90 206.98L336.90 209.74L332.67 209.74L332.67 225.24L336.90 225.24L336.90 228ZM355.28 228.29L355.28 228.29Q353.32 228.29 351.89 227.55Q350.47 226.82 349.70 225.42Q348.94 224.03 348.94 222.15L348.94 222.15L348.94 212.82Q348.94 210.92 349.70 209.54Q350.47 208.16 351.89 207.42Q353.32 206.69 355.28 206.69L355.28 206.69Q357.23 206.69 358.66 207.42Q360.09 208.16 360.85 209.54Q361.61 210.92 361.61 212.79L361.61 212.79L361.61 222.15Q361.61 224.03 360.85 225.42Q360.09 226.82 358.66 227.55Q357.23 228.29 355.28 228.29ZM355.28 225.52L355.28 225.52Q356.86 225.52 357.68 224.64Q358.50 223.77 358.50 222.15L358.50 222.15L358.50 212.82Q358.50 211.18 357.68 210.32Q356.86 209.45 355.28 209.45L355.28 209.45Q353.72 209.45 352.89 210.32Q352.05 211.18 352.05 212.82L352.05 212.82L352.05 222.15Q352.05 223.77 352.89 224.64Q353.72 225.52 355.28 225.52ZM376.04 228L373.16 228L373.16 206.98L377.08 206.98L383.21 224.46Q383.15 223.62 383.07 222.47Q382.98 221.32 382.94 220.08Q382.90 218.84 382.90 217.83L382.90 217.83L382.90 206.98L385.78 206.98L385.78 228L381.86 228L375.75 210.52Q375.81 211.27 375.88 212.39Q375.95 213.51 376.00 214.72Q376.04 215.93 376.04 216.97L376.04 216.97L376.04 228ZM403.75 228.29L403.75 228.29Q401.62 228.29 400.09 227.58Q398.56 226.88 397.73 225.57Q396.89 224.26 396.89 222.44L396.89 222.44L399.97 222.44Q399.97 223.88 400.98 224.70Q401.99 225.52 403.78 225.52L403.78 225.52Q405.45 225.52 406.40 224.72Q407.35 223.91 407.35 222.50L407.35 222.50Q407.35 221.32 406.70 220.45Q406.05 219.59 404.84 219.27L404.84 219.27L402.19 218.50Q399.89 217.83 398.63 216.24Q397.38 214.64 397.38 212.42L397.38 212.42Q397.38 210.69 398.16 209.40Q398.94 208.10 400.38 207.38Q401.82 206.66 403.78 206.66L403.78 206.66Q406.66 206.66 408.40 208.21Q410.14 209.77 410.17 212.39L410.17 212.39L407.06 212.39Q407.06 211.01 406.18 210.22Q405.30 209.42 403.72 209.42L403.72 209.42Q402.19 209.42 401.33 210.16Q400.46 210.89 400.46 212.22L400.46 212.22Q400.46 213.40 401.11 214.26Q401.76 215.13 402.97 215.47L402.97 215.47L405.65 216.28Q407.95 216.91 409.19 218.52Q410.43 220.14 410.43 222.38L410.43 222.38Q410.43 224.14 409.59 225.48Q408.76 226.82 407.26 227.55Q405.76 228.29 403.75 228.29Z" fill="#a4b18b"></path>
</svg>